<?xml version="1.0" standalone="no"?>
<!DOCTYPE svg PUBLIC "-//W3C//DTD SVG 20010904//EN"
 "http://www.w3.org/TR/2001/REC-SVG-20010904/DTD/svg10.dtd">
<svg version="1.0" xmlns="http://www.w3.org/2000/svg"
 width="762.000000pt" height="379.000000pt" viewBox="0 0 762.000000 379.000000"
 preserveAspectRatio="xMidYMid meet">

<g transform="translate(0.000000,379.000000) scale(0.100000,-0.100000)"
fill="#000000" stroke="none">
<path d="M520 3190 l0 -520 30 0 30 0 0 500 0 500 3180 0 3180 0 0 -500 0
-500 30 0 30 0 0 520 0 520 -3240 0 -3240 0 0 -520z"/>
<path d="M2363 2635 c-133 -30 -249 -122 -306 -242 -29 -62 -32 -76 -32 -168
0 -93 2 -105 33 -168 43 -87 115 -158 210 -204 66 -33 84 -38 170 -41 89 -4
212 9 239 26 9 6 7 28 -6 90 -10 45 -20 84 -22 87 -3 2 -27 -3 -54 -11 -34
-10 -77 -14 -132 -12 -69 4 -89 9 -130 34 -72 45 -106 100 -111 180 -6 86 16
141 75 194 25 22 64 46 87 52 55 17 171 14 223 -5 42 -16 43 -16 48 6 27 119
33 152 29 158 -16 27 -236 44 -321 24z"/>
<path d="M6518 2636 c-85 -23 -143 -78 -174 -163 -39 -111 5 -180 180 -278
135 -76 175 -136 125 -186 -33 -33 -132 -24 -227 20 -40 19 -74 32 -75 30 -2
-2 -16 -26 -32 -54 -16 -27 -35 -60 -42 -72 -14 -20 -11 -23 49 -56 83 -47
157 -67 239 -67 256 0 404 258 234 408 -23 20 -87 59 -141 86 -150 73 -171
101 -113 150 43 36 125 36 188 1 24 -14 45 -24 46 -23 8 9 65 129 65 136 0 22
-184 83 -245 81 -16 0 -51 -6 -77 -13z"/>
<path d="M90 2225 l0 -405 90 0 90 0 0 150 c0 115 3 150 13 150 72 0 190 25
244 51 95 46 133 109 133 218 -1 103 -58 184 -157 221 -46 17 -78 20 -233 20
l-180 0 0 -405z m271 255 c134 -25 150 -164 23 -199 -22 -6 -56 -11 -76 -11
l-38 0 0 103 c0 57 3 107 7 110 9 9 21 9 84 -3z"/>
<path d="M860 2225 l0 -405 90 0 90 0 0 150 0 150 34 0 c32 0 37 -5 131 -150
l97 -150 99 0 100 0 -12 23 c-7 12 -56 88 -110 168 l-98 147 42 26 c169 107
129 373 -65 431 -38 11 -98 15 -225 15 l-173 0 0 -405z m315 243 c55 -29 76
-77 55 -129 -16 -39 -59 -60 -132 -66 l-58 -6 0 113 0 112 58 -7 c31 -4 66
-12 77 -17z"/>
<path d="M1640 2225 l0 -405 90 0 90 0 0 405 0 405 -90 0 -90 0 0 -405z"/>
<path d="M2880 2225 l0 -405 235 0 235 0 0 80 0 80 -140 0 -140 0 0 85 0 85
130 0 130 0 0 80 0 80 -130 0 -130 0 0 80 0 79 138 3 137 3 3 78 3 77 -236 0
-235 0 0 -405z"/>
<path d="M4000 2226 l0 -406 95 0 95 0 0 149 0 150 58 6 c135 15 200 37 256
85 82 73 92 230 20 326 -13 17 -48 44 -76 60 -53 29 -54 29 -250 32 l-198 4 0
-406z m281 253 c69 -15 99 -45 99 -99 0 -66 -62 -110 -157 -110 l-33 0 0 110
c0 125 -5 119 91 99z"/>
<path d="M4782 2313 c3 -303 4 -320 24 -358 53 -97 124 -137 260 -143 161 -7
258 38 310 145 l29 58 3 308 4 307 -91 0 -91 0 0 -227 c0 -288 -8 -348 -50
-385 -26 -24 -39 -28 -88 -28 -37 0 -66 6 -81 16 -47 33 -51 64 -51 354 l0
270 -91 0 -90 0 3 -317z"/>
<path d="M5610 2225 l0 -405 230 0 230 0 0 80 0 79 -137 3 -138 3 -3 323 -2
322 -90 0 -90 0 0 -405z"/>
<path d="M7060 2225 l0 -405 230 0 230 0 0 80 0 80 -140 0 -140 0 0 85 0 85
135 0 135 0 0 80 0 80 -135 0 -135 0 0 80 0 80 140 0 140 0 0 80 0 80 -230 0
-230 0 0 -405z"/>
<path d="M520 1280 l0 -520 3240 0 3240 0 0 520 0 520 -30 0 -30 0 0 -500 0
-500 -3180 0 -3180 0 0 500 0 500 -30 0 -30 0 0 -520z"/>
<path d="M2910 345 l0 -205 45 0 c25 0 45 4 45 9 0 5 17 3 39 -5 74 -25 142
15 157 92 9 49 -2 82 -41 121 -30 30 -38 33 -94 33 l-61 0 0 80 0 80 -45 0
-45 0 0 -205z m184 -44 c44 -48 -15 -122 -70 -87 -30 20 -34 79 -6 95 27 16
57 13 76 -8z"/>
<path d="M3670 345 l0 -205 40 0 40 0 0 78 c0 65 3 82 19 96 46 42 81 -4 81
-106 l0 -68 41 0 41 0 -4 100 c-3 85 -6 103 -24 120 -29 29 -96 37 -129 16
l-25 -16 0 95 0 95 -40 0 -40 0 0 -205z"/>
<path d="M1965 526 c-40 -17 -90 -75 -105 -122 -17 -49 -7 -136 20 -179 50
-81 176 -113 256 -66 42 25 44 25 44 7 0 -7 9 -16 20 -19 19 -5 20 0 20 104
l0 109 -90 0 c-94 0 -96 -1 -84 -47 5 -19 13 -23 45 -23 46 0 51 -16 14 -50
-53 -50 -133 -18 -157 62 -32 108 74 201 156 137 l27 -21 29 27 c24 23 27 31
17 43 -37 45 -150 65 -212 38z"/>
<path d="M4480 334 l0 -196 88 4 c100 5 137 20 185 80 51 63 49 175 -5 244
-35 44 -92 64 -185 64 l-83 0 0 -196z m172 105 c31 -16 51 -68 45 -117 -6 -55
-39 -90 -90 -99 l-37 -6 0 122 0 123 33 -7 c17 -4 40 -11 49 -16z"/>
<path d="M5562 360 c3 -154 5 -171 23 -189 11 -11 32 -23 48 -26 24 -6 29 -3
41 26 14 32 14 35 -10 52 -24 18 -24 22 -24 163 l0 144 -41 0 -40 0 3 -170z"/>
<path d="M3460 434 c0 -37 -4 -47 -20 -51 -14 -4 -20 -14 -20 -34 0 -22 5 -29
20 -29 18 0 20 -7 20 -70 0 -57 4 -74 20 -90 24 -24 92 -31 113 -11 13 13 -10
58 -32 64 -18 4 -21 13 -21 56 0 48 2 51 25 51 21 0 25 5 25 29 0 23 -5 30
-22 33 -20 3 -23 10 -26 51 l-3 47 -40 0 -39 0 0 -46z"/>
<path d="M2392 374 c-12 -8 -22 -10 -22 -5 0 6 -20 11 -45 11 l-45 0 0 -120 0
-120 45 0 45 0 0 79 c0 89 11 106 61 99 25 -4 33 0 45 24 8 16 12 33 9 38 -10
15 -68 12 -93 -6z"/>
<path d="M2611 364 c-41 -34 -58 -91 -43 -142 21 -71 85 -101 158 -76 24 8 40
10 42 4 2 -6 21 -10 43 -10 l39 0 0 109 c0 137 -4 141 -126 141 -74 0 -86 -3
-113 -26z m133 -57 c26 -19 24 -67 -4 -89 -54 -44 -120 32 -73 84 19 21 52 23
77 5z"/>
<path d="M4061 373 c-48 -24 -76 -88 -61 -141 16 -61 66 -95 137 -94 44 1 98
25 107 48 7 18 -41 36 -64 24 -32 -17 -78 -12 -90 9 -5 11 -10 22 -10 25 0 3
41 6 91 6 l91 0 -6 25 c-14 54 -27 76 -58 95 -40 24 -91 25 -137 3z m107 -60
c14 -23 14 -23 -37 -23 -56 0 -60 4 -34 32 21 24 51 20 71 -9z"/>
<path d="M4923 371 c-82 -52 -83 -167 -1 -215 53 -32 150 -17 187 27 10 12 6
17 -20 26 -23 8 -36 8 -45 0 -21 -17 -75 -6 -92 18 l-14 23 92 0 93 0 -6 37
c-14 84 -120 130 -194 84z m101 -47 c26 -25 19 -34 -29 -34 -46 0 -58 13 -33
38 17 17 44 15 62 -4z"/>
<path d="M5248 374 c-37 -20 -58 -63 -58 -120 0 -39 5 -51 34 -80 42 -42 96
-48 144 -18 19 13 22 13 22 -1 0 -11 11 -15 40 -15 l40 0 0 115 c0 115 0 116
-26 125 -39 15 -165 11 -196 -6z m124 -71 c33 -30 17 -84 -29 -98 -32 -9 -77
36 -67 68 3 12 11 28 16 35 15 17 58 15 80 -5z"/>
</g>
</svg>
